<?xml version="1.0" standalone="no"?><!DOCTYPE svg PUBLIC "-//W3C//DTD SVG 1.1//EN" "http://www.w3.org/Graphics/SVG/1.1/DTD/svg11.dtd"><svg width="100%" height="100%" viewBox="0 0 157 68" version="1.1" xmlns="http://www.w3.org/2000/svg" xmlns:xlink="http://www.w3.org/1999/xlink" xml:space="preserve" style="fill-rule:evenodd;clip-rule:evenodd;stroke-linejoin:round;stroke-miterlimit:1.41421;"><g><path d="M56.981,55.543l-2.907,-3.675l-1.912,-2.399l0.479,-0.319l-0.766,-3.806l0.564,-0.484l2.292,-1.926l-0.937,-3.726l-1.254,0.07l3.344,-2.422l-3.831,-5.403l1.887,-1.264l-0.585,-3.478l-3.391,-1.816l-3.653,-0.083l-3.652,-0.088l-1.772,-2.922l-1.432,-2.378l-13.235,2.692l-2.149,0.439l-0.92,0.186l0.203,3.498l-3.013,1.382l-0.357,0.161l-0.258,1.034l-0.933,3.646l-3.166,1.253l0.335,5.675l-0.767,1.48l-0.856,1.665l0.262,0.801l0.746,2.292l-2.17,2.765l0.157,0.424l0.254,0.686l0.932,2.48l-2.394,2.425l-3.331,3.369c0.525,0.594 1.068,1.158 1.631,1.714l2.615,-2.646l3.446,-3.493l3.47,-0.653l1.111,0.267l4.111,0.975l2.026,-1.467l4.87,-3.654l1.419,-0.568l0.733,-0.29l0.377,-0.152l-0.016,-0.102l-0.445,-3.447l2.843,-2.038l0.505,-0.363l-0.14,-0.39l-1.026,-2.886l0.259,-0.063l1.522,-4.115l0.279,-0.742l-4.679,-4.158l4.65,-1.352l3.766,-1.092l3.731,0.083l3.475,0.078l1.865,1.005l0.147,0.862l-9.611,6.398l8.954,-1.872l1.917,2.712l-7.947,5.766l7.301,-0.429l0.111,0.427l-2.802,2.36l0.309,1.539l0.421,2.073l-3.887,2.521l-6.171,3.998l-3.631,2.358l-1.844,-0.171l-1.962,-0.177l4.811,-5.787l-0.618,-0.492l-6.261,7.539l-8.967,8.931c0.796,0.335 1.602,0.64 2.424,0.915l8.545,-8.512l0.224,-0.225l4.259,0.382l0.08,-0.054l2.285,2.166l6.76,6.426l0.004,0c0.843,-0.263 1.674,-0.564 2.497,-0.891l-7.219,-6.859l-2.279,-2.166l2.644,-1.713l5.886,-3.815l2.595,-1.674l1.903,2.399l3.197,4.029l3.93,3.145c0.583,-0.538 1.161,-1.089 1.712,-1.657l-3.929,-3.137l0,0ZM26.658,49.956l-1.996,1.45l-4.64,-1.102l-1.453,0.271l0.016,0.012l-0.051,-0.008l-1.869,0.353l-0.309,-0.831l-0.496,-1.31l0.36,-0.454l0.937,-1.178l9.464,2.065l0.037,0.732ZM31.926,46.344l-2.267,0.911l-0.377,0.144l-5.947,-1.297l-1.793,-0.386l0,-0.004l-3.941,-0.857l-0.263,-0.809l-0.431,-1.314l0.212,-0.402l0.678,-1.314l3.055,0.793l7.708,2.009l3.238,0.844l0.03,0.322l0.021,0l0.077,1.36ZM32.629,42.45l-4.394,-1.144l-0.758,-0.199l-5.518,-1.436l-3.644,-0.947l-0.204,-3.463l2.34,-0.925l-0.068,-0.156l3.878,1.925l4.319,2.14l0.004,0.003l2.954,1.461l2.453,-0.578l0.475,1.321l0.19,0.542l-2.027,1.456l0,0ZM35.499,34.263l0.102,0.082l-0.814,2.196l-2.958,0.689l-2,-0.997l-0.004,0.005l-6.603,-3.276l-1.865,-0.927l0.323,-1.28l0.249,-0.962l0.094,-0.359l3.14,-1.441c0.687,0.574 1.887,1.208 3.853,1.157c0.093,0 0.194,-0.001 0.3,-0.008c0.072,-0.006 0.14,-0.011 0.212,-0.017c0.39,-0.031 0.755,-0.095 1.098,-0.182l0.394,1.323l4.479,3.997ZM37.1,26.083l-3.059,0.888c0.423,-0.426 0.749,-0.837 0.966,-1.14c0.203,-0.291 0.313,-0.486 0.334,-0.516l-0.698,-0.377c0,0 -0.293,0.522 -0.857,1.145c-0.453,0.494 -1.076,1.058 -1.869,1.507c-0.453,0.25 -0.957,0.462 -1.517,0.6c-0.297,0.074 -0.61,0.125 -0.932,0.155c-0.174,0.012 -0.343,0.021 -0.5,0.03c-1.631,0.031 -2.636,-0.456 -3.208,-0.907l0.055,-0.007l-0.169,-2.831l2.403,-0.49l3.967,-0.808l4.425,-0.898l1.83,-0.371l0.254,0.423l1.641,2.705l-3.066,0.892l0,0Z" style="fill:#fff;fill-rule:nonzero;"/><path d="M70.568,32.692c0.521,8.898 -2.394,17.213 -7.628,23.686l-3.738,-2.984l-3.424,-4.32l-0.516,-2.578l2.923,-2.48l-1.068,-4.273l3.026,-2.198l-3.766,-5.309l0.94,-0.623l-1.165,-6.863l-5.366,-2.878l-6.349,-0.146l-3.453,-5.719l-21.076,4.288l0.238,4.059l-2.802,1.287l-1.165,4.578l-3.764,1.492l0.416,7.041l-1.823,3.522l0.898,2.757l-2.229,2.827l1.272,3.383l-4.107,4.159c-3.912,-5.228 -6.371,-11.587 -6.781,-18.55c-1.132,-19.171 13.735,-35.638 33.204,-36.787c19.474,-1.145 36.172,13.459 37.303,32.629Z" style="fill:#fff;fill-rule:nonzero;"/><g transform="matrix(0.74978,-5.37656e-20,-5.37656e-20,0.75,-8.13616,10.6041)"><path d="M112.313,2.531l7.992,0l0,17.712l6.624,0l0,6.3l-14.616,0l0,-24.012Z" style="fill:#fff;fill-rule:nonzero;"/><rect x="128.189" y="2.531" width="8.136" height="24.012" style="fill:#fff;fill-rule:nonzero;"/><path d="M138.845,2.531l14.148,0l0,6.3l-6.48,0l0,2.664l6.372,0l0,5.976l-6.372,0l0,9.072l-7.668,0l0,-24.012Z" style="fill:#fff;fill-rule:nonzero;"/><path d="M158.141,8.831l-4.428,0l0,-6.3l16.776,0l0,6.3l-4.428,0l0,17.712l-7.92,0l0,-17.712Z" style="fill:#fff;fill-rule:nonzero;"/><path d="M188.777,27.155c-1.512,0 -2.88,-0.192 -4.104,-0.576c-1.224,-0.384 -2.268,-0.96 -3.132,-1.728c-0.864,-0.768 -1.53,-1.74 -1.998,-2.916c-0.468,-1.176 -0.702,-2.556 -0.702,-4.14l0,-15.264l7.668,0l0,14.94c0,0.84 0.174,1.482 0.522,1.926c0.348,0.444 0.93,0.666 1.746,0.666c0.816,0 1.398,-0.222 1.746,-0.666c0.348,-0.444 0.522,-1.086 0.522,-1.926l0,-14.94l7.704,0l0,15.264c0,1.584 -0.234,2.964 -0.702,4.14c-0.468,1.176 -1.14,2.148 -2.016,2.916c-0.876,0.768 -1.926,1.344 -3.15,1.728c-1.224,0.384 -2.592,0.576 -4.104,0.576Z" style="fill:#fff;fill-rule:nonzero;"/><path d="M219.845,11.675c0,1.656 -0.288,3.066 -0.864,4.23c-0.576,1.164 -1.362,2.106 -2.358,2.826c-0.996,0.72 -2.16,1.248 -3.492,1.584c-1.332,0.336 -2.766,0.504 -4.302,0.504l0,5.724l-7.668,0l0,-24.012l7.668,0c1.536,0 2.97,0.168 4.302,0.504c1.332,0.336 2.496,0.864 3.492,1.584c0.996,0.72 1.782,1.662 2.358,2.826c0.576,1.164 0.864,2.574 0.864,4.23ZM208.829,14.339l0.324,0c1.008,0 1.734,-0.234 2.178,-0.702c0.444,-0.468 0.666,-1.122 0.666,-1.962c0,-0.84 -0.222,-1.494 -0.666,-1.962c-0.444,-0.468 -1.17,-0.702 -2.178,-0.702l-0.324,0l0,5.328Z" style="fill:#fff;fill-rule:nonzero;"/><path d="M112.313,36.131l6.3,0l6.624,9.252l0,-9.252l7.524,0l0,24.012l-6.336,0l-6.588,-9.216l0,9.216l-7.524,0l0,-24.012Z" style="fill:#fff;fill-rule:nonzero;"/><path d="M135.281,36.131l14.148,0l0,6.3l-6.48,0l0,2.664l6.372,0l0,5.976l-6.372,0l0,2.772l6.732,0l0,6.3l-14.4,0l0,-24.012Z" style="fill:#fff;fill-rule:nonzero;"/><path d="M170.525,45.275c0,1.656 -0.288,3.066 -0.864,4.23c-0.576,1.164 -1.362,2.106 -2.358,2.826c-0.996,0.72 -2.16,1.248 -3.492,1.584c-1.332,0.336 -2.766,0.504 -4.302,0.504l0,5.724l-7.668,0l0,-24.012l7.668,0c1.536,0 2.97,0.168 4.302,0.504c1.332,0.336 2.496,0.864 3.492,1.584c0.996,0.72 1.782,1.662 2.358,2.826c0.576,1.164 0.864,2.574 0.864,4.23ZM159.509,47.939l0.324,0c1.008,0 1.734,-0.234 2.178,-0.702c0.444,-0.468 0.666,-1.122 0.666,-1.962c0,-0.84 -0.222,-1.494 -0.666,-1.962c-0.444,-0.468 -1.17,-0.702 -2.178,-0.702l-0.324,0l0,5.328Z" style="fill:#fff;fill-rule:nonzero;"/><path d="M177.293,36.131l5.76,0l9.108,24.012l-7.56,0l-0.792,-2.16l-7.272,0l-0.792,2.16l-7.56,0l9.108,-24.012ZM181.793,52.691l-1.62,-4.212l-1.62,4.212l3.24,0Z" style="fill:#fff;fill-rule:nonzero;"/><path d="M193.421,36.131l7.992,0l0,17.712l6.624,0l0,6.3l-14.616,0l0,-24.012Z" style="fill:#fff;fill-rule:nonzero;"/></g></g></svg>